<svg width="48" height="48" viewBox="0 0 64 64" fill="none" xmlns="http://www.w3.org/2000/svg">
<circle cx="32" cy="32" r="32" fill="#FEFEFE"/>
<path d="M25.1744 35.7144L27.976 37.6163L30.6852 38.0739L34.207 37.6153L33.2285 41.4898L32.5156 42.4569L29.6912 40.0662H27.3752L25.4027 39.2931L24.7604 36.6036L25.1744 35.7144Z" fill="#FAC498"/>
<path d="M32.9172 42.6691C32.9172 42.6691 30.3802 39.4109 28.7366 39.2958C27.093 39.1806 24.1814 42.6691 24.1814 42.6691H25.4774C25.4774 42.6691 27.5547 40.3624 28.5488 40.3054C29.5439 40.2473 31.8495 42.6691 31.8495 42.6691H32.9172V42.6691Z" fill="#1D1D1B"/>
<path d="M22.653 42.6686L24.4118 41.2771L25.1039 41.9723L27.8111 39.5131L25.9682 37.9982L25.8821 36.7582L24.4699 35.374L21.1547 35.5473L20.9534 38.0272C20.9523 38.0272 21.2117 41.8613 22.653 42.6686Z" fill="#1D1D1B"/>
<path d="M32.9172 41.9483C32.9172 41.9483 35.3245 38.5314 35.4978 36.9314L33.8324 37.5799C33.8324 37.5799 33.2555 41.0394 32.9172 41.9483Z" fill="#1D1D1B"/>
<path d="M33.4868 42.6689H35.6275L37.6384 39.7853L40.4711 41.9477L40.0965 38.8919C40.0965 38.8919 42.4893 39.6992 44.0748 42.6689C44.0748 42.6689 48.8604 42.8971 49.1198 40.9806C49.3792 39.0641 41.9124 32.3476 31.7063 29.7815C21.5001 27.2154 17.1182 29.9548 15.5898 32.4337C14.0251 34.9738 16.1947 42.6689 16.1947 42.6689C16.1947 42.6689 18.3572 38.8628 21.8166 38.4592C25.2761 38.0556 26.6893 34.538 26.6893 34.538L30.0336 34.2205L32.1742 35.7396L34.733 36.1515L35.4967 36.2957L34.207 36.9297L34.4155 38.4001L35.172 38.0753L34.869 41.2753L33.4868 42.6689Z" fill="#1D1D1B"/>
<path d="M23.3658 25.8764L23.4768 25.3129L23.8441 22.448L24.2239 19.5935C24.2239 19.5935 24.7635 17.0389 25.1526 16.6238C25.5417 16.2098 26.7298 14.9532 27.866 14.5921C29.0011 14.231 32.0507 13.5171 33.9963 14.3172C35.9419 15.1172 37.1642 16.2305 37.1642 16.2305C37.1642 16.2305 38.3097 18.1979 38.3315 18.2415C38.3533 18.2851 38.6127 19.4846 38.6127 19.4846L39.1616 20.3697C39.1616 20.3697 39.3048 21.592 39.1668 22.0734C39.0288 22.5549 38.84 22.9907 38.84 22.9907L38.9053 23.2958L38.84 24.847L38.9053 25.6958L38.7974 26.3879L38.1925 30.9483L37.9009 31.7836C37.9009 31.7836 34.8669 36.2993 34.3823 36.7684C33.8977 37.2374 33.4889 37.4106 33.4889 37.4106L31.1968 37.6151L28.639 37.504L27.9033 37.2353L26.7132 36.1562L25.2501 34.0498L23.9738 31.3229L23.5173 27.7213L23.3585 26.4377L23.3658 25.8764Z" fill="#FAC498"/>
<path d="M21.798 25.637C21.798 25.637 22.0294 25.1877 22.4538 25.1939C22.8781 25.2001 23.1095 25.3164 23.1095 25.3164L23.4053 26.0583L23.7581 29.6153L23.8753 30.5398H23.4416L22.4828 30.0303L22.0283 29.057L21.6901 26.9952V25.8922L21.798 25.637Z" fill="#FAC498"/>
<path d="M38.8917 25.7844C38.8917 25.7844 39.6835 25.5946 39.9761 25.7346C40.2676 25.8747 40.3973 26.2649 40.3973 26.2649L40.2168 27.8856L39.5465 30.0605L38.8087 30.6748L38.1924 30.9487L38.6469 27.5214L38.8917 25.7844Z" fill="#FAC498"/>
<path d="M26.3604 28.7188C26.3604 28.7188 27.73 29.6848 29.301 29.829C30.872 29.9732 32.0684 30.0594 33.6694 29.7574C35.2705 29.4555 36.6422 28.7198 36.6422 28.7198L36.8259 28.8059L36.249 30.0604C36.249 30.0604 35.6503 32.8931 31.3617 33.1525C27.4218 33.3912 26.2877 29.1909 26.2877 29.1909L26.3604 28.7188Z" fill="white"/>
<path d="M22.7515 24.3077L23.2278 25.6057L23.3585 25.7292L23.8452 22.4482L24.2156 19.6664C24.2156 19.6664 24.7894 17.1076 25.1214 16.8699C25.4535 16.6323 27.8546 14.362 29.3539 14.1451C30.8533 13.9283 31.8411 13.9874 32.195 13.9459C32.5488 13.9044 35.1055 14.7075 35.1055 14.7075L36.6962 15.8531L37.6467 17.0515C37.6467 17.0515 38.4384 18.6879 38.4363 18.6785C38.4342 18.6692 38.565 19.2638 38.565 19.2638L39.0464 20.1426L39.227 21.007V21.6244C39.227 21.6244 39.0599 22.7927 38.84 22.992C38.62 23.1912 38.8503 23.1984 38.8503 23.1984L38.7984 25.5341L39.226 25.0942L39.5248 24.4384L39.8651 22.7813L40.4576 21.2249L40.3134 19.7369L39.8651 19.3613L39.0807 19.2067L40.7316 16.8564L40.9692 14.5L39.9243 13.0079L37.1092 10.4273L34.0928 9.68124L31.7166 8.83765L30.3843 8.92377L29.0001 9.56191C29.0001 9.56191 26.957 11.4867 26.9238 11.4971C26.8916 11.5075 23.3129 13.8587 23.3129 13.8587L21.5935 14.7511L21.8747 15.3892L23.3014 16.1675L24.5414 16.7631L23.8317 17.1906L23.2797 19.519L22.8542 21.4459L22.7515 24.3077Z" fill="#6A4F3E"/>
<path d="M27.067 20.4871C27.0016 20.5016 26.0501 21.5932 26.5856 21.5714C27.121 21.5496 27.9314 21.1397 28.5477 21.5714C29.1641 22.003 29.4774 22.058 29.4992 21.8951C29.521 21.7333 29.5096 21.4521 29.3041 21.3327C29.0987 21.2134 29.0769 20.954 28.8715 20.8575C28.666 20.76 29.4276 20.76 29.6092 21.1065C29.7908 21.4521 30.0284 22.223 29.9101 22.3621C29.7908 22.5011 29.4992 22.4471 29.4992 22.4471L28.2665 22.0248C28.2665 22.0248 27.5122 21.9522 27.1749 21.9429C26.8377 21.9335 26.4683 22.0943 26.4683 22.0943L25.9526 22.2936C25.9526 22.2936 25.3684 21.9646 25.8789 21.2725C26.3894 20.5815 27.067 20.4871 27.067 20.4871Z" fill="#D6816C"/>
<path d="M34.847 19.7338C34.8273 19.7401 33.7014 20.069 33.6278 20.8586C33.5541 21.6483 33.6838 21.7448 33.6838 21.7448C33.6838 21.7448 34.3686 20.6459 35.178 20.6386C35.9873 20.6314 36.6255 21.0859 36.6255 21.0859C36.6255 21.0859 35.0898 20.6106 34.6467 21.2052C34.2036 21.7998 34.1601 21.9409 34.1601 21.9409C34.1601 21.9409 34.6685 21.5735 35.6522 21.8008C35.6522 21.8008 35.0255 21.9844 34.8957 22.2013C34.8957 22.2013 34.7121 22.3455 35.0472 22.3435C35.3824 22.3414 36.3982 22.3321 36.8091 22.6236C37.22 22.9152 37.2636 22.772 37.2636 22.772C37.2636 22.772 37.274 22.5583 37.0364 22.4493C37.0364 22.4493 37.6963 22.6589 37.7171 22.8841C37.7389 23.1092 37.468 23.2172 37.1547 23.1518C36.8413 23.0864 35.979 22.8602 35.979 22.8602L34.9383 22.6589L33.8789 22.8706L33.606 22.7181C33.606 22.7181 33.3725 23.0667 33.2511 22.771C33.1287 22.4752 33.0623 22.1494 33.0623 22.1494L33.082 20.6397L33.5665 19.8864C33.5665 19.8864 33.8685 19.7494 33.8581 19.6664C33.8488 19.5834 34.3769 19.573 34.3769 19.573L34.847 19.7338Z" fill="#D6816C"/>
<path d="M30.6924 20.4872C30.6924 20.4872 31.1822 20.2133 31.8317 20.2454C32.4802 20.2776 32.4304 20.9697 32.5809 21.006C32.7313 21.0423 32.4335 22.5313 33.08 23.3905C33.7264 24.2496 33.8976 24.6605 33.8976 24.6605C33.8976 24.6605 34.0948 24.7757 33.8063 24.1563C33.5179 23.5368 33.4265 23.0792 33.4265 23.0792L32.9959 22.1495C32.9959 22.1495 32.9306 20.7165 32.9503 20.7041C32.97 20.6916 32.9503 20.152 32.9503 20.152L32.2571 19.8978L31.4644 19.8542L30.8262 19.9757L30.4268 20.2475L30.6229 20.5816L30.6924 20.4872Z" fill="#D6816C"/>
<path d="M23.7569 23.1363C23.7694 23.0377 24.4044 22.6206 24.4044 22.6206L24.5715 22.9122C24.5715 22.9122 23.7061 23.5358 23.7123 23.4912C23.7165 23.4476 23.7569 23.1363 23.7569 23.1363Z" fill="#D6816C"/>
<path d="M25.3238 23.9508C25.3238 23.9508 26.2971 24.728 27.92 24.6699C30.1809 24.589 30.5286 22.9194 30.4891 22.5936C30.4497 22.2678 30.5804 21.8496 30.5804 21.8496L30.65 21.6919C30.65 21.6919 31.2092 24.6938 27.9874 24.8484C25.4348 24.9708 24.8621 23.4943 24.8621 23.4943L25.3238 23.9508Z" fill="#D6816C"/>
<path d="M25.4131 22.8049C25.4131 22.8049 25.5677 23.2635 26.3895 23.2739C27.2113 23.2843 28.113 23.1722 27.5319 23.332C26.9509 23.4918 27.6793 23.4327 27.7052 23.4296C27.7322 23.4265 28.5042 23.3704 28.5052 23.3341C28.5063 23.2978 29.0521 22.9305 29.0521 22.9305L29.3478 22.5268C29.3478 22.5268 28.8674 22.3961 28.6007 22.1834C28.334 21.9707 27.34 22.31 27.34 22.31C27.34 22.31 26.5472 22.2539 26.3169 22.1668L25.9527 22.2934V22.448H26.2235L25.824 22.6576L26.3532 22.5258L26.1591 22.7177L26.5119 22.6586L27.3804 22.8049H28.141L28.0113 22.9139C28.0113 22.9139 27.1387 23.1919 26.707 23.138C26.2743 23.084 25.9537 23.0591 25.9537 23.0591L25.4131 22.8049Z" fill="#D6816C"/>
<path d="M27.5857 20.3648C27.5857 20.3648 29.2511 20.675 29.4669 21.1285C29.6827 21.5819 29.91 22.3622 29.91 22.3622C29.91 22.3622 30.3105 22.2097 30.3032 21.7479C30.296 21.2862 30.3935 20.5516 30.2431 20.2973C30.0926 20.0431 29.5115 19.489 29.2366 19.3687C28.9616 19.2483 28.45 19.2192 28.45 19.2192C28.45 19.2192 29.4306 19.8024 29.5385 20.0255C29.6464 20.2486 29.661 20.3357 29.661 20.3357C29.661 20.3357 28.4864 19.9684 27.5857 20.3648Z" fill="#D6816C"/>
<path d="M29.2078 21.1803C29.2078 21.1803 29.1072 21.5362 28.826 21.4729C28.5448 21.4096 27.9533 21.0277 27.586 21.0858C27.2187 21.1439 27.7115 21.2799 27.7115 21.2799L28.1961 21.4801C28.1961 21.4801 28.5417 21.7499 28.5645 21.8039C28.5883 21.8568 29.2223 22.1525 29.2794 22.167C29.3375 22.1816 29.8418 21.8713 29.8418 21.8713L29.6094 21.2664L29.2078 21.1803Z" fill="#D6816C"/>
<path d="M30.6874 22.0798C30.7434 22.0144 30.7974 21.1179 31.0786 20.955C31.3598 20.7931 31.6949 20.7091 31.835 20.7029C31.9751 20.6956 32.0405 20.7029 32.0405 20.7029C32.0405 20.7029 31.9969 20.4901 31.6192 20.5337C31.2405 20.5773 31.144 20.4933 30.9593 20.7029C30.7756 20.9125 30.6148 20.7029 30.6148 20.7029C30.6148 20.7029 30.5151 20.8025 30.5183 21.1387C30.5214 21.4748 30.6106 21.7436 30.5816 21.8484C30.5515 21.9542 30.6874 22.0798 30.6874 22.0798Z" fill="#D6816C"/>
<path d="M28.4784 25.8276C28.4784 25.8276 28.2449 26.7729 28.5645 26.7408C28.883 26.7086 28.6018 26.3132 29.2182 26.2572C29.8345 26.2001 29.9321 26.0673 30.591 26.4046C31.2509 26.7418 31.3879 27.0116 31.5529 27.0334C31.7178 27.0552 31.7178 27.2419 31.7178 27.2419L31.6711 27.5231L31.585 27.768C31.585 27.768 31.1741 27.6601 30.839 27.3675C30.5038 27.0759 30.7736 26.9939 30.2662 27.078C29.7578 27.162 29.8335 27.1724 29.4766 27.3187C29.1196 27.465 28.5572 27.5096 28.3196 27.4712C28.082 27.4328 27.8049 27.2419 27.8049 27.2419C27.8049 27.2419 28.385 27.3135 28.3632 27.1838C28.3414 27.0541 28.0934 26.5612 28.1256 26.2562C28.1588 25.9511 28.4784 25.8276 28.4784 25.8276Z" fill="#D6816C"/>
<path d="M30.731 26.4776C30.731 26.4776 31.4511 26.9227 31.7188 26.8449C31.9865 26.7671 32.2023 26.4589 32.7108 26.3666C33.2192 26.2742 33.6135 26.1455 33.8625 26.2638C34.2195 26.4039 34.1655 26.6903 34.1655 26.6903C34.1655 26.6903 34.0119 26.986 34.2402 26.9788C34.4685 26.9715 34.1116 27.1603 34.1116 27.1603L34.4374 27.1437C34.4374 27.1437 34.3388 27.4384 34.0784 27.4374C33.8179 27.4364 33.6623 27.4581 33.4246 27.3824C33.187 27.3066 33.1383 27.0369 32.7491 27.1718C32.36 27.3066 31.8205 27.8639 31.7198 27.8473C31.6192 27.8307 31.505 27.7404 31.505 27.7404L31.4459 27.3554L31.1969 26.874L30.7642 26.5606L30.731 26.4776Z" fill="#D6816C"/>
<path d="M21.8562 26.2321C21.8562 26.2321 21.8884 26.7074 21.9859 26.8101C21.9859 26.8101 22.0181 26.4096 22.1862 26.4853C22.3543 26.5611 22.1104 27.3891 22.1208 27.8643C22.1312 28.3396 22.1312 29.1883 22.7475 29.3232C22.7475 29.3232 22.9478 29.2693 22.8067 29.2153C22.6656 29.1614 22.2495 28.7774 22.2443 28.1881C22.2391 27.5987 22.5141 26.5133 22.6448 26.2643C22.7745 26.0142 22.4881 25.8638 22.4881 25.8638C22.4881 25.8638 22.3366 25.7393 22.2204 25.7714C22.1042 25.8036 22.0046 25.8928 22.0046 25.8928L21.8562 26.2321Z" fill="#D6816C"/>
<path d="M23.3399 26.4453C23.3399 26.4453 22.7183 25.6214 22.488 25.6069C22.2586 25.5934 22.0688 25.6992 22.0688 25.6992C22.0688 25.6992 22.3178 25.5311 22.4797 25.5664C22.6415 25.6017 22.7256 25.693 22.7256 25.693C22.7256 25.693 22.6363 25.528 22.5066 25.5145C22.3769 25.501 22.1684 25.5332 22.1684 25.5332C22.1684 25.5332 22.0148 25.6577 22.0065 25.6712C21.9982 25.6847 21.8228 26.2035 21.855 26.2305C21.8872 26.2575 22.0169 26.1413 22.0169 26.1413L22.3551 25.803L22.8926 26.2056L23.317 26.768L23.3399 26.4453Z" fill="#D6816C"/>
<path d="M23.3978 27.0572C23.3978 27.0572 23.3117 26.8445 23.0917 27.0572C22.8717 27.2699 22.4681 27.8541 22.4899 28.1239C22.4899 28.1239 22.7098 27.9329 22.7316 28.016C22.7316 28.016 22.6331 28.8129 22.8572 28.8263C23.0813 28.8409 22.825 28.43 23.0668 28.2681C23.3086 28.1062 23.4528 27.8946 23.4528 27.8946L23.3978 27.0572Z" fill="#D6816C"/>
<path d="M40.1929 26.543C40.1929 26.543 40.1493 27.0702 40.0518 27.1729C40.0518 27.1729 40.0196 26.7724 39.8515 26.8481C39.6834 26.9239 39.9273 27.7519 39.9169 28.2271C39.9065 28.7023 39.9065 29.5511 39.2902 29.686C39.2902 29.686 39.0899 29.6321 39.231 29.5781C39.3711 29.5241 39.7882 29.1402 39.7934 28.5509C39.7986 27.9615 39.5236 26.8761 39.3929 26.6271C39.2632 26.377 39.5496 26.2266 39.5496 26.2266C39.5496 26.2266 39.7011 26.102 39.8173 26.1342C39.9335 26.1664 40.0331 26.2556 40.0331 26.2556L40.1929 26.543Z" fill="#D6816C"/>
<path d="M38.676 26.8364C38.676 26.8364 39.2976 26.0125 39.5279 25.998C39.7572 25.9845 39.9471 26.0903 39.9471 26.0903C39.9471 26.0903 39.6981 25.9223 39.5362 25.9575C39.3743 25.9928 39.2903 26.0841 39.2903 26.0841C39.2903 26.0841 39.3795 25.9191 39.5092 25.9056C39.6389 25.8922 39.8475 25.9243 39.8475 25.9243C39.8475 25.9243 40.0011 26.0488 40.0094 26.0623C40.0177 26.0758 40.193 26.5946 40.1609 26.6216C40.1287 26.6486 39.999 26.5324 39.999 26.5324L39.6607 26.1941L39.1232 26.5967L38.6989 27.1591L38.676 26.8364Z" fill="#D6816C"/>
<path d="M38.6168 27.4488C38.6168 27.4488 38.7029 27.2361 38.9229 27.4488C39.1428 27.6615 39.5465 28.2457 39.5247 28.5155C39.5247 28.5155 39.3047 28.3246 39.2829 28.4076C39.2829 28.4076 39.3815 29.2045 39.1574 29.218C38.9332 29.2325 39.1895 28.8216 38.9478 28.6597C38.706 28.4978 38.5618 28.2862 38.5618 28.2862L38.6168 27.4488Z" fill="#D6816C"/>
<path d="M31.2185 14.0469C31.2185 14.0469 35.4946 15.0389 36.1099 16.697C36.7252 18.3551 36.5312 18.9466 36.5312 18.9466L38.1374 19.3595L38.6261 19.5733C38.6261 19.5733 38.5483 17.7066 36.8726 16.1927C35.1968 14.6788 34.1737 14.4484 34.1156 14.4049C34.0575 14.3613 32.7459 14.0469 32.7459 14.0469L31.4053 13.9722L31.2185 14.0469Z" fill="#D6816C"/>
<path d="M33.0801 14.9805C33.0801 14.9805 34.9084 15.0811 35.752 15.8168C36.5956 16.5525 36.6962 16.9561 36.6962 16.9561C36.6962 16.9561 34.8264 15.4422 33.0801 14.9805Z" fill="#D6816C"/>
<path d="M33.6477 15.7383C33.6477 15.7383 35.476 15.8389 36.3196 16.5746C37.1632 17.3103 37.2638 17.7139 37.2638 17.7139C37.2638 17.7139 35.394 16.199 33.6477 15.7383Z" fill="#D6816C"/>
<path d="M34.1292 16.3481C34.1292 16.3481 35.9575 16.4488 36.801 17.1845C37.6446 17.9202 37.7453 18.3238 37.7453 18.3238C37.7453 18.3238 35.8744 16.8099 34.1292 16.3481Z" fill="#D6816C"/>
<path d="M34.7163 17.0518C34.7163 17.0518 36.5446 17.1524 37.3882 17.8881C38.2318 18.6238 38.3324 19.0274 38.3324 19.0274C38.3324 19.0274 36.4616 17.5125 34.7163 17.0518Z" fill="#D6816C"/>
<path d="M35.1055 17.6909C35.1055 17.6909 36.9338 17.7916 37.7774 18.5272C38.621 19.2629 38.7216 19.6666 38.7216 19.6666C38.7216 19.6666 36.8518 18.1527 35.1055 17.6909Z" fill="#D6816C"/>
<path d="M35.2352 18.1343C35.2352 18.1343 37.0635 18.2349 37.9071 18.9706C38.7507 19.7063 38.8514 20.1099 38.8514 20.1099C38.8514 20.1099 36.9816 18.596 35.2352 18.1343Z" fill="#D6816C"/>
<path d="M25.8447 16.0908C25.8447 16.0908 24.9585 18.0872 25.0913 18.743C25.0913 18.743 27.7446 17.9575 29.3301 19.1217C30.9156 20.286 28.7531 19.1217 28.7531 19.1217L27.3337 19.0771L24.9492 19.5544L24.1409 20.1874L24.2125 19.5731L24.8039 17.337L25.496 16.2797L25.8447 16.0908Z" fill="#D6816C"/>
<path d="M36.1099 28.3164C36.1099 28.3164 36.25 28.773 36.1099 28.8975C35.9698 29.022 36.4077 28.8975 36.4077 28.8975L36.5727 29.0708V29.5699C36.5727 29.5699 36.6671 29.1807 36.775 29.3105C36.883 29.4402 37.0334 29.6207 37.0344 29.5408C37.0355 29.4609 36.8404 28.8612 36.802 28.8145C36.7636 28.7678 36.4005 28.4627 36.4005 28.4627L36.1099 28.3164Z" fill="#D6816C"/>
<path d="M26.9164 28.0337C26.9164 28.0337 26.353 28.6407 26.6591 28.8379C26.9652 29.035 26.4899 28.8835 26.4899 28.8835L26.3239 28.8545C26.3239 28.8545 26.1797 28.9696 26.2015 28.9987C26.2233 29.0277 26.3602 29.6254 26.3602 29.6254C26.3602 29.6254 26.1226 29.1554 26.0645 29.1886C26.0064 29.2218 25.9307 29.2145 25.9307 29.2145L26.1216 28.6096L26.2305 28.3938C26.2305 28.3938 26.4899 28.1862 26.519 28.1696C26.5481 28.153 26.9164 28.0337 26.9164 28.0337Z" fill="#D6816C"/>
<path d="M29.4027 25.1938C29.4027 25.1938 27.8349 25.3775 27.5205 26.0914C27.2071 26.8053 26.9155 27.6696 26.9155 27.6696C26.9155 27.6696 27.3472 27.0865 27.6398 26.6911C27.9314 26.2958 28.1047 26.8167 28.1047 26.8167L28.2447 25.9171L28.5145 25.5321L29.4027 25.1938Z" fill="#D6816C"/>
<path d="M33.5365 25.4934C33.5365 25.4934 34.2888 25.288 34.6499 25.7134C35.0099 26.1388 35.1396 26.6068 35.1396 26.6068C35.1396 26.6068 35.3907 27.5013 35.5713 27.7389C35.7518 27.9765 36.033 28.1643 36.033 28.1643C36.033 28.1643 35.399 27.9526 35.2974 27.8489C35.1967 27.7461 35.4053 28.2141 35.4053 28.2141C35.4053 28.2141 35.121 27.9111 34.7837 27.5874C34.4465 27.2636 34.3168 27.2346 34.3168 27.2128C34.3168 27.191 34.5586 26.8745 34.5586 26.8745C34.5586 26.8745 34.627 26.1606 34.3739 25.9666C34.1217 25.7715 33.8955 25.5848 33.8955 25.5848L33.5365 25.4934Z" fill="#D6816C"/>
<path d="M33.2658 24.6689L32.9918 23.9395C32.9918 23.9395 33.5542 24.8256 33.6186 24.9418C33.6839 25.057 33.7586 25.1649 33.7586 25.1649L33.8634 25.443L33.8977 25.5831C33.8977 25.5831 33.714 25.5042 33.5366 25.4928C33.3591 25.4814 33.1651 25.3807 33.1288 25.3517C33.0925 25.3226 32.8694 25.085 32.8694 25.085C32.8694 25.085 33.1433 25.2365 33.2367 25.1358C33.3301 25.0352 33.2658 24.6689 33.2658 24.6689Z" fill="#D6816C"/>
<path d="M31.4456 26.8189C31.4456 26.8189 31.6002 26.7867 31.8668 26.5636C32.1335 26.3405 32.7032 26.217 32.7032 26.217C32.7032 26.217 32.4147 26.3198 32.1698 26.5823C31.9249 26.8448 31.6728 26.9019 31.6292 26.9019C31.5856 26.9019 31.4456 26.8189 31.4456 26.8189Z" fill="#D6816C"/>
<path d="M30.979 26.6177C30.979 26.6177 31.3505 26.8013 31.6421 26.7277C31.9326 26.654 31.5289 26.9632 31.5144 26.9601C31.4999 26.957 31.1969 26.875 31.1969 26.875L31.0091 26.6913L30.979 26.6177Z" fill="#D6816C"/>
<path d="M37.9963 19.4887C37.9963 19.4887 38.7818 20.9278 38.676 21.8026C38.5701 22.6773 38.3408 23.1681 38.3408 23.1681C38.3408 23.1681 38.6137 22.0225 38.5058 21.8026C38.3979 21.5816 37.9963 21.0057 37.9963 21.0057L38.3408 22.2602C38.3408 22.2602 38.1987 23.9141 37.6622 24.1767C37.1257 24.4392 36.8726 24.4361 36.8726 24.4361L35.3161 24.4662C35.3161 24.4662 36.8259 24.8262 37.381 24.7608C37.9361 24.6955 38.3325 24.5668 38.3325 24.5668C38.3325 24.5668 38.1468 28.8834 38.0741 29.5682C37.878 31.41 36.4513 33.2445 36.4513 33.2445L34.8876 36.1333L37.3021 32.899L38.0741 31.299L38.5629 28.2857L38.8005 25.5121L38.8513 23.0571C38.8513 23.0571 39.3349 22.0609 39.1792 21.0057C39.0236 19.9504 38.8513 19.8529 38.8513 19.8529L38.4923 19.4887L38.1374 19.3579L37.9963 19.4887Z" fill="#D6816C"/>
<path d="M34.5598 30.7732L34.8296 31.2266L35.089 30.8697L35.1772 31.2702C35.1772 31.2702 35.9118 30.9631 36.0831 30.6155C36.2532 30.2689 36.5593 29.2178 36.5593 29.2178L36.301 29.306L35.889 29.7999L35.3204 30.6694L35.2135 30.2513L34.8296 30.9496L34.5598 30.7732Z" fill="#E2DFE8"/>
<path d="M27.9759 30.541L27.5536 30.9405L27.397 30.6697L27.1573 31.065C27.1573 31.065 26.4154 29.631 26.4237 29.575C26.432 29.5189 26.4776 29.1143 26.4776 29.1143L26.6177 29.2388C26.6177 29.2388 27.1905 30.4279 27.2226 30.3905C27.2548 30.3532 27.3793 29.9537 27.3793 29.9537L27.6927 30.6697L27.9759 30.541Z" fill="#E2DFE8"/>
<path d="M27.1998 30.1788C27.1749 30.0812 27.0234 29.4005 27.0234 29.4005C27.0234 29.4005 28.7168 30.3842 31.5568 30.3303C34.3968 30.2763 35.8349 29.4763 35.8349 29.4763L35.3265 30.46C35.3265 30.46 36.0373 29.9027 36.222 29.4005C36.4067 28.8973 36.4067 28.8973 36.4067 28.8973L35.781 29.1131C35.781 29.1131 33.7867 29.8 32.7023 29.854C31.618 29.9079 30.9778 29.9494 30.9778 29.9494L28.4979 29.6859L26.3604 28.751V29.1131L26.9155 29.6859L27.1998 30.1788Z" fill="#E2DFE8"/>
<path d="M28.7927 32.6971C28.7927 32.6971 29.8885 33.9734 32.3425 33.6382C34.7964 33.3031 37.0242 31.0327 37.0346 29.5406L36.9163 29.1131L36.6818 28.751L36.3861 30.0885C36.3861 30.0885 35.7251 31.8431 34.1033 32.5456C32.4815 33.2481 31.6493 33.1609 31.6493 33.1609L30.0317 33.054L28.7927 32.6971Z" fill="#D6816C"/>
<path d="M21.805 14.9091C21.805 14.9091 22.4504 15.7776 25.0507 15.4425C25.0507 15.4425 24.2455 15.4207 23.8025 15.3346C23.8025 15.3346 25.8674 14.9454 26.6674 14.4484C27.4674 13.9514 29.7564 12.6066 31.9105 12.7623C31.9105 12.7623 30.6456 12.2652 29.4783 12.6969C28.311 13.1296 28.0516 13.1296 28.0516 13.1296C28.0516 13.1296 29.9764 11.4756 32.7655 11.6914C35.5547 11.9073 36.6971 12.837 36.6971 12.837C36.6971 12.837 34.5056 11.2587 33.219 11.237C31.9323 11.2152 31.6729 11.237 31.6729 11.237C31.6729 11.237 32.8122 10.6206 34.129 10.7617C35.4457 10.9028 38.7091 12.8069 38.9031 12.094C39.0971 11.3812 38.6261 11.4538 38.6261 11.4538L40.3859 13.3672L41.0883 14.7732C41.0883 14.7732 39.3804 18.6332 39.3472 18.6332C39.314 18.6332 38.7205 18.4381 38.7205 18.4381L37.5096 16.6254L34.5585 14.0489L32.3204 13.8891L30.0272 13.9545L28.147 14.4764L26.656 15.2515L25.0559 16.7634L24.6855 16.7737L23.5659 16.4708L22.3405 15.8036C22.3415 15.8025 21.776 15.2733 21.805 14.9091Z" fill="#503B2F"/>
<path d="M27.7852 37.9693C27.7852 37.9693 29.4848 39.2424 32.6371 38.6728L32.6029 42.3398C32.6029 42.3398 32.773 42.1789 32.9173 41.9486C33.0615 41.7182 34.5598 37.7482 34.5598 37.7482L33.8294 37.2803L32.6029 37.4556L30.1354 37.7482L29.0127 37.6652L27.7852 37.9693Z" fill="#D6816C"/>
<path d="M32.8403 38.9536L31.2932 39.2825L32.8403 39.5803V38.9536Z" fill="#D6816C"/>
<path d="M33.1858 39.7114L31.6387 40.0404L33.1858 40.3382V39.7114Z" fill="#D6816C"/>
<path d="M33.3811 40.4238L31.834 40.7528L33.2306 41.0225L33.3811 40.4238Z" fill="#D6816C"/>
<path d="M25.9682 37.998L27.1303 38.9536L26.2888 37.998L26.3604 36.7051L25.8821 36.8317L25.9682 37.998Z" fill="#FACFAC"/>
<g opacity="0.85">
<path opacity="0.85" d="M30.3095 20.1385C30.0605 19.7027 29.6226 19.3831 29.1132 19.1662L29.4265 19.3167L29.7824 19.7182L26.9165 24.2101L29.1972 19.3447L28.7936 19.3011L26.0667 24.2911L25.3051 23.8314C25.3051 23.8314 28.1596 19.3229 28.2779 19.1278L27.6563 19.1932L24.8298 23.3499C24.6368 23.2472 24.3411 22.1224 24.3411 22.1224L25.6693 19.4194L27.1738 19.0624L28.4895 18.9576C28.1035 18.8611 27.7041 18.8145 27.3326 18.8145C26.5886 18.8145 25.2231 19.0697 24.6565 19.6176C24.1087 20.1478 24.0921 21.5839 24.2373 22.1743C24.6181 23.7173 25.717 24.566 27.3326 24.566C29.0301 24.566 30.5191 23.2223 30.5191 21.6908V21.5496C30.5223 21.0661 30.5254 20.5162 30.3095 20.1385Z" fill="white"/>
</g>
<g opacity="0.85">
<path opacity="0.85" d="M26.3967 22.6765C26.3967 22.6765 26.4372 22.8519 26.817 22.9121C27.1967 22.9722 28.0507 22.8747 28.0507 22.8747L27.7259 22.8384L26.8657 22.7554L26.4289 22.6226L26.3967 22.6765Z" fill="white"/>
</g>
<g opacity="0.85">
<path opacity="0.85" d="M33.1433 22.0798L33.687 19.7025L34.129 19.6216L33.2439 22.8217L33.7596 23.4992L35.039 19.4203L34.2826 23.1039L34.7173 23.3778L36.1036 19.22L36.474 19.3591L35.178 24.3511C35.178 24.3511 35.4209 24.4808 35.7529 24.4912C36.0849 24.5016 36.3765 24.4912 36.3765 24.4912L37.8572 19.1723L38.1384 19.3591L37.5221 21.9397L38.3812 19.4805L38.0253 19.1723L36.3755 18.8164L35.2351 19.027L34.129 19.3601L33.2294 19.854L32.9492 20.7039L32.9949 22.1493L33.1433 22.0798Z" fill="white"/>
</g>
<path d="M26.3966 15.5045C26.3966 15.5045 24.7966 17.9399 26.516 17.6908C28.2353 17.4418 30.652 17.9399 30.652 17.9399L32.5498 17.9938C32.5498 17.9938 28.1119 16.1022 28.9586 15.1175C29.8053 14.1338 31.121 13.9761 31.121 13.9761C31.121 13.9761 27.4021 13.945 26.3966 15.5045Z" fill="#FACFAC"/>
<path d="M28.9264 14.9805C28.9264 14.9805 29.6507 16.3066 30.6509 16.6241C30.6509 16.6241 28.8942 16.3356 28.5643 15.7379C28.2343 15.1392 28.9264 14.9805 28.9264 14.9805Z" fill="#FACFAC"/>
<path d="M28.6255 25.6555C28.6255 25.6555 28.3962 26.2262 28.5643 26.2552C28.7324 26.2853 28.7749 25.9388 29.1267 25.9554C29.4784 25.972 30.0616 25.8589 30.1643 25.7665C30.267 25.6742 30.0937 25.2529 29.9485 25.1906C29.8022 25.1284 29.1796 25.202 28.9783 25.3183C28.7759 25.4334 28.6255 25.6555 28.6255 25.6555Z" fill="#FACFAC"/>
<path d="M30.4995 25.9184C30.5161 25.9402 31.1117 26.5452 31.3628 26.4694C31.6129 26.3937 31.7654 26.404 31.7198 26.0855C31.6741 25.7669 31.6409 25.4152 31.4676 25.3716C30.9 25.1402 30.4995 25.9184 30.4995 25.9184Z" fill="#FACFAC"/>
<path d="M33.5365 25.4937C33.5365 25.4937 33.8457 25.8112 34.0947 25.9886C34.3438 26.1671 34.1746 26.7564 34.2732 26.7969C34.3718 26.8374 34.5586 27.0096 34.5523 26.6786C34.5461 26.3476 34.3158 25.9025 34.3158 25.9025L33.9858 25.6368L33.5365 25.4937Z" fill="#FACFAC"/>
<path d="M31.1533 21.3047C31.1533 21.3047 30.9084 21.7052 30.9011 22.1483C30.8939 22.5924 30.8762 23.464 30.6511 23.7452C30.4259 24.0264 30.0337 24.6178 30.0337 24.6178C30.0337 24.6178 30.457 25.0495 30.456 25.1688C30.456 25.1688 30.7362 24.6967 30.9312 24.6251C31.1263 24.5535 31.3639 24.0015 31.3639 24.0015L30.9032 24.2433C30.9032 24.2433 31.0973 23.7234 31.1149 22.9888C31.1325 22.2541 31.1533 21.3047 31.1533 21.3047Z" fill="#FACFAC"/>
<path d="M30.901 23.882L31.2787 23.332L30.901 23.6942V23.882Z" fill="#FACFAC"/>
<path d="M31.0381 23.2733C31.1014 23.2214 31.2332 22.9858 31.2332 22.9858L30.979 23.156L31.0381 23.2733Z" fill="#FACFAC"/>
<path d="M31.0236 22.9321L31.2332 22.6924L30.979 22.8107L31.0236 22.9321Z" fill="#FACFAC"/>
<path d="M31.0452 22.608L31.233 22.4316L31.0452 22.4586V22.608Z" fill="#FACFAC"/>
<path d="M22.2307 29.1895L22.7786 29.9521L23.3399 30.3537L22.6987 30.2644L22.2971 29.7197L22.2307 29.1895Z" fill="#FACFAC"/>
<path d="M30.2423 19.8115C30.2423 19.8115 30.9936 19.5075 31.2789 19.5178C31.5643 19.5282 32.3217 19.6641 32.3217 19.6641L31.3619 19.6652L31.5103 19.8104C31.5103 19.8104 30.839 19.9651 30.8037 19.9879C30.7695 20.0117 30.3087 20.1373 30.3087 20.1373C30.3087 20.1373 30.2392 20.1591 30.2154 20.1082C30.1915 20.0574 30.2423 19.8115 30.2423 19.8115Z" fill="#FACFAC"/>
<path d="M21.7689 25.7294L22.1508 25.4316L22.8284 25.5125L23.3057 26.0116L23.1884 25.5613L22.8927 25.3289L22.5949 25.2002C22.5949 25.2002 22.2037 25.2178 22.1819 25.2251C22.1601 25.2324 22.0294 25.2749 21.964 25.3289C21.8997 25.3828 21.7762 25.5042 21.7679 25.5395C21.7617 25.5758 21.7689 25.7294 21.7689 25.7294Z" fill="#FACFAC"/>
<path d="M21.804 14.8153L21.805 14.9087C21.805 14.9087 23.6177 15.1173 25.2074 14.5445C26.797 13.9717 27.0263 13.593 27.0263 13.593C27.0263 13.593 25.1078 14.3453 24.0286 14.3494C24.0286 14.3494 27.1986 12.5875 28.1491 11.387C29.0995 10.1864 30.6031 9.3221 31.2184 9.35426C31.8337 9.38643 33.4015 9.99241 34.6239 10.3058C35.8452 10.6191 37.0675 10.5216 37.0675 10.5216L34.8075 9.97062L31.897 8.89874L30.3748 8.83545L29.3475 9.36568C29.3475 9.36568 27.0066 11.1712 27.0253 11.2033C27.044 11.2355 23.8553 13.6905 23.8553 13.6905L21.804 14.8153Z" fill="#887265"/>
<path d="M28.4751 11.406C28.4751 11.406 29.604 10.0509 30.2961 9.84955C30.9882 9.64825 31.7187 9.73438 31.7187 9.73438C31.7187 9.73438 30.6137 9.64825 30.0367 10.2532C29.4598 10.8581 28.4751 11.406 28.4751 11.406Z" fill="#887265"/>
<path d="M23.9469 17.6201L23.5671 19.5719L23.8742 19.0313L23.7103 19.6155L23.8742 19.3592L23.7103 19.9475L23.4768 20.1519L23.2278 21.8111L23.1634 22.5208L23.0981 21.9408C23.0981 21.9408 22.8418 23.1362 22.8563 22.9328C22.8708 22.7294 22.9528 21.0069 22.9528 21.0069L23.3575 19.4432L23.9469 17.6201Z" fill="#887265"/>
<path d="M23.9852 17.2262L24.2903 16.8153L24.1377 17.5509L24.6223 16.9387L24.1409 17.994L24.6223 17.5509C24.6223 17.5509 24.2208 18.5481 24.1409 18.9465C24.061 19.345 23.8991 20.1429 23.8991 20.1429C23.8991 20.1429 23.6355 20.1243 23.567 20.3401C23.4986 20.5559 23.4726 20.863 23.6044 21.0073C23.7362 21.1515 23.7476 22.1922 23.7383 22.2618C23.7289 22.3313 23.8015 22.7775 23.8015 22.7775L23.401 24.0465L23.1738 23.2735L23.1302 24.6691C23.1302 24.6691 22.7556 24.0662 22.7816 24.2644C22.8075 24.4626 23.0762 25.1308 23.0866 25.191C23.097 25.2512 23.3834 25.7845 23.3834 25.7845L23.6044 24.6691L23.6822 23.702C23.6822 23.702 23.8223 22.6965 23.8742 22.2607C23.9261 21.8249 24.1398 20.1865 24.1398 20.1865L24.5435 18.048L25.1733 16.6523H24.1595L23.9852 17.2262Z" fill="#503B2F"/>
<path d="M39.3743 19.5184L39.8672 19.7965H39.4656C39.4656 19.7965 39.834 19.8162 39.8838 20.0766C39.9336 20.3371 39.8776 20.5321 39.8838 20.5747C39.89 20.6183 39.8184 21.245 39.8184 21.245C39.8184 21.245 39.7396 20.6463 39.696 20.7044C39.6524 20.7625 39.5912 21.548 39.5912 21.548L39.4075 21.0437C39.4075 21.0437 39.5383 21.989 39.3608 22.2629C39.1834 22.5368 38.9883 23.1127 38.9883 23.1127L39.2965 22.7226L39.1056 23.9418L39.2965 23.5454C39.2965 23.5454 39.1606 24.9722 39.1616 25.0375C39.1626 25.1029 38.9883 25.4951 38.9883 25.4951L38.8026 25.5138L38.8773 24.003L38.8887 22.9187L39.1813 22.0284L39.2125 21.0873L38.8026 19.5734C38.8026 19.5734 38.7829 19.2839 38.8026 19.2756C38.8223 19.2662 39.2125 19.123 39.2125 19.123C39.2125 19.123 39.1896 19.4852 39.3743 19.5184Z" fill="#503B2F"/>
<path d="M40.1848 20.1099V20.582L40.0188 20.1877C40.0188 20.1877 40.0115 20.3589 40.0188 20.8601C40.026 21.3612 39.8662 22.1613 39.8662 22.1613L39.8828 21.5127C39.8828 21.5127 39.7448 22.0025 39.6587 22.1976C39.5726 22.3926 39.4055 22.8461 39.4055 22.8461L39.6369 22.4497C39.6369 22.4497 39.5518 22.9229 39.529 23.4158C39.5051 23.9086 39.5944 24.1068 39.6068 24.0477C39.6193 23.9896 40.0841 22.5068 40.0841 22.5068L40.3975 21.3031L40.1848 20.1099Z" fill="#887265"/>
<path d="M30.3054 22.7212C30.2836 22.7212 30.2607 22.717 30.2379 22.7087C30.1362 22.6714 30.0843 22.5593 30.1217 22.4576C30.213 22.2086 30.2587 21.9502 30.2587 21.6908V21.5487C30.2607 21.1191 30.2638 20.5847 30.0823 20.2672C29.6153 19.4495 28.3297 19.076 27.3325 19.076C26.4921 19.076 25.2894 19.3697 24.8381 19.8055C24.6274 20.0088 24.4801 20.4498 24.4344 21.0143C24.4261 21.1222 24.3307 21.2031 24.2238 21.1938C24.1159 21.1855 24.036 21.0911 24.0443 20.9832C24.0827 20.511 24.2041 19.8739 24.5652 19.5243C25.1639 18.9453 26.5439 18.6848 27.3315 18.6848C28.475 18.6848 29.8737 19.1144 30.4205 20.0732C30.654 20.482 30.6509 21.0745 30.6488 21.5507V21.6908C30.6488 21.9969 30.5948 22.2999 30.488 22.5925C30.46 22.6724 30.3852 22.7212 30.3054 22.7212Z" fill="#1D1D1B"/>
<path d="M27.3337 24.5668C25.7181 24.5668 24.6192 23.717 24.2384 22.175C24.0931 21.5857 24.1087 20.1485 24.6576 19.6183C25.2242 19.0704 26.5897 18.8152 27.3337 18.8152C28.4398 18.8152 29.7887 19.224 30.3096 20.1371C30.5254 20.5159 30.5223 21.0648 30.5202 21.5493V21.6905C30.5192 23.223 29.0312 24.5668 27.3337 24.5668ZM27.3337 18.9459C26.4714 18.9459 25.2377 19.2385 24.7479 19.7127C24.2561 20.189 24.2208 21.5576 24.365 22.1439C24.7354 23.6443 25.7617 24.4371 27.3337 24.4371C28.9617 24.4371 30.3895 23.1546 30.3895 21.6915V21.5493C30.3916 21.1042 30.3947 20.5501 30.1954 20.2025C29.7036 19.3392 28.3671 18.9459 27.3337 18.9459Z" fill="#1D1D1B"/>
<path d="M24.4035 19.8853H23.757C23.6522 19.8853 23.5671 19.9703 23.5671 20.0751V20.2972C23.5671 20.402 23.6522 20.4871 23.757 20.4871H24.2395L24.4035 19.8853Z" fill="#1D1D1B"/>
<path d="M39.031 19.8853H39.6774C39.7822 19.8853 39.8673 19.9703 39.8673 20.0751V20.2972C39.8673 20.402 39.7822 20.4871 39.6774 20.4871H39.1949L39.031 19.8853Z" fill="#1D1D1B"/>
<path d="M33.1454 22.721C33.0655 22.721 32.9908 22.6722 32.9618 22.5923C32.8549 22.2997 32.801 21.9967 32.801 21.6906V21.5506C32.7989 21.0743 32.7958 20.4808 33.0292 20.0719C33.5761 19.1132 34.9748 18.6836 36.1183 18.6836C36.9069 18.6836 38.2859 18.944 38.8846 19.523C39.2457 19.8727 39.3681 20.5088 39.4055 20.9819C39.4138 21.0899 39.3339 21.1843 39.226 21.1926C39.1201 21.2019 39.0236 21.121 39.0153 21.0131C38.9697 20.4486 38.8223 20.0076 38.6117 19.8042C38.1603 19.3674 36.9577 19.0748 36.1172 19.0748C35.1201 19.0748 33.8344 19.4473 33.3675 20.2649C33.1859 20.5825 33.189 21.1179 33.1911 21.5475V21.6896C33.1911 21.949 33.2378 22.2074 33.3281 22.4564C33.3654 22.5581 33.3125 22.6702 33.2119 22.7075C33.1901 22.7169 33.1672 22.721 33.1454 22.721Z" fill="#1D1D1B"/>
<path d="M36.1172 24.567C34.4196 24.567 32.9306 23.2232 32.9306 21.6917V21.5516C32.9285 21.067 32.9254 20.5171 33.1412 20.1383C33.6621 19.2252 35.0111 18.8164 36.1172 18.8164C36.8611 18.8164 38.2267 19.0717 38.7932 19.6195C39.3411 20.1498 39.3577 21.5858 39.2124 22.1763C38.8316 23.7182 37.7328 24.567 36.1172 24.567ZM36.1172 18.9461C35.0837 18.9461 33.7472 19.3394 33.2543 20.2027C33.0562 20.5513 33.0582 21.1054 33.0603 21.5506V21.6917C33.0603 23.1537 34.4881 24.4372 36.1161 24.4372C37.6881 24.4372 38.7144 23.6445 39.0848 22.1441C39.229 21.5578 39.1937 20.1892 38.7019 19.7129C38.2132 19.2387 36.9794 18.9461 36.1172 18.9461Z" fill="#1D1D1B"/>
<path d="M39.0476 19.8853H39.6941C39.7989 19.8853 39.8839 19.9703 39.8839 20.0751V20.2972C39.8839 20.402 39.7989 20.4871 39.6941 20.4871H39.2116L39.0476 19.8853Z" fill="#1D1D1B"/>
<path d="M30.6415 20.7693C30.5875 20.7693 30.5367 20.7351 30.518 20.6811L30.3717 20.2567C30.326 20.126 30.3956 19.9818 30.5253 19.934C31.2942 19.6528 32.1409 19.6528 32.9097 19.934C33.0415 19.9818 33.109 20.1219 33.0664 20.2536L32.9274 20.6759C32.9046 20.7444 32.8309 20.7807 32.7624 20.759C32.6939 20.7361 32.6566 20.6625 32.6794 20.594L32.8184 20.1717C32.1087 19.9185 31.3253 19.9185 30.6145 20.1779L30.765 20.595C30.7888 20.6635 30.7525 20.7372 30.684 20.761C30.6705 20.7673 30.656 20.7693 30.6415 20.7693Z" fill="#1D1D1B"/>
<path d="M31.0899 27.1189C31.0899 27.1189 30.816 26.3833 29.9796 26.2826C29.1433 26.182 28.8984 26.542 28.9991 26.7008C29.0997 26.8595 29.9796 26.7693 30.1809 26.6925C30.3833 26.6147 30.873 26.6863 31.0899 27.1189Z" fill="#1D1D1B"/>
<path d="M29.608 27.1943C29.6599 27.1809 28.4946 27.3355 28.3317 26.6921C28.1699 26.0488 28.5268 25.53 29.4026 25.1948C29.4026 25.1948 27.9758 25.2156 27.9758 26.3622C27.9758 27.0958 28.257 27.5513 29.608 27.1943Z" fill="#1D1D1B"/>
<path d="M33.3676 27.1393C33.325 27.1279 34.2838 27.2555 34.4177 26.7264C34.5515 26.1972 34.2579 25.7697 33.5367 25.4937C33.5367 25.4937 34.7113 25.5113 34.7113 26.4545C34.7103 27.0584 34.4799 27.433 33.3676 27.1393Z" fill="#1D1D1B"/>
<path d="M23.6906 30.6696C23.4737 30.6696 23.1137 30.6084 22.6135 30.324C21.7575 29.8384 21.3466 26.1808 21.6288 25.552C21.9214 24.9014 22.7111 25.0311 23.0877 25.1909C23.1541 25.2189 23.1842 25.2957 23.1572 25.3611C23.1292 25.4275 23.0524 25.4586 22.986 25.4306C22.9518 25.416 22.1279 25.0767 21.8664 25.6578C21.7637 25.8871 21.7637 26.8231 21.9432 27.9344C22.131 29.0944 22.4371 29.9235 22.7422 30.0968C23.4665 30.5077 23.8421 30.3915 23.8462 30.3894C23.9137 30.3666 23.8898 30.4237 23.9137 30.4911C23.9375 30.5585 24.0008 30.6104 23.9344 30.6353C23.9147 30.6426 23.8327 30.6696 23.6906 30.6696Z" fill="#1D1D1B"/>
<path d="M23.4633 26.2647C23.4924 26.2823 24.1409 20.8763 24.1409 20.8763L24.225 20.3284H23.9853L23.3181 25.5612L22.9144 24.5018V23.2255L23.0877 21.0776L24.0538 17.3151L24.5435 16.623L24.1108 16.7382L23.729 17.3577C23.729 17.3577 22.8262 20.5692 22.7764 21.4428C22.7266 22.3165 22.5523 24.3492 22.7764 24.9542C23.0016 25.5622 23.4633 26.2647 23.4633 26.2647Z" fill="#1D1D1B"/>
<path d="M31.3784 37.7469C31.0515 37.7469 30.8222 37.7366 30.7932 37.7355C30.789 37.7355 30.5753 37.7314 28.8424 37.6567C26.3698 37.5487 24.2167 32.4592 23.8597 31.1009C23.4893 29.6929 23.2392 25.9346 23.2289 25.7748C23.2237 25.7032 23.2787 25.6409 23.3503 25.6357C23.4219 25.6316 23.4841 25.6855 23.4893 25.7571C23.4914 25.7955 23.7487 29.6493 24.1119 31.0335C24.445 32.3004 26.5586 37.2945 28.8538 37.3941C30.5732 37.4689 30.7932 37.473 30.8015 37.473C30.8295 37.474 33.1538 37.5737 33.8262 37.1275C34.4954 36.6823 37.8356 32.1821 38.0327 31.1144C38.2247 30.0716 38.6646 26.0767 38.6688 26.0373C38.6771 25.9657 38.7404 25.9138 38.813 25.9221C38.8846 25.9304 38.9365 25.9947 38.9282 26.0663C38.9095 26.2313 38.482 30.111 38.289 31.1621C38.0784 32.3066 34.6812 36.8733 33.9714 37.3454C33.4485 37.693 32.1452 37.7469 31.3784 37.7469Z" fill="#1D1D1B"/>
<path d="M32.1482 26.6921C32.1482 26.6921 32.9918 26.3186 33.4452 26.3725C33.8987 26.4265 33.9962 26.5894 33.8022 26.6921C33.6071 26.7948 33.1858 26.9245 32.861 26.7834C32.5373 26.6433 32.1482 26.6921 32.1482 26.6921Z" fill="#1D1D1B"/>
<path d="M28.1493 14.4048C28.1493 14.4048 25.5853 16.037 25.0125 17.3351C24.4398 18.6321 24.2405 20.1138 24.2405 20.1138C24.2405 20.1138 23.9531 20.1999 23.9863 20.1138C24.0185 20.0277 24.5913 17.0871 25.219 16.3732C25.8457 15.6593 26.5887 15.0564 26.5887 15.0564L28.1493 14.4048Z" fill="#1D1D1B"/>
<path d="M24.7457 21.0061C24.7457 21.0061 25.0632 19.8668 26.2306 19.4922C27.3979 19.1176 28.9772 19.3625 28.9772 19.3625L27.5577 18.8862L25.416 19.2442C25.416 19.2453 24.4427 20.2715 24.7457 21.0061Z" fill="#1D1D1B"/>
<path d="M33.3655 20.0484C33.3655 20.0484 33.6031 20.2539 34.0379 20.0484C34.4726 19.843 35.3152 19.4974 36.1588 19.5836C37.0024 19.6697 37.8563 20.3514 38.1375 20.8598C38.1375 20.8598 37.8242 19.3791 37.0024 19.0762C36.1806 18.7732 35.4023 18.9381 35.4023 18.9381L34.18 19.1727L33.3655 20.0484Z" fill="#1D1D1B"/>
<path d="M37.8574 19.7339L38.1376 20.8587L38.3327 21.006L37.8574 19.7339Z" fill="#1D1D1B"/>
<path d="M38.2568 20.1509L38.3326 21.0059L38.5059 21.0858L38.2568 20.1509Z" fill="#1D1D1B"/>
<path d="M23.297 27.0109C23.1995 26.8449 23.0937 26.6779 22.9837 26.517C22.8727 26.3562 22.7564 26.1995 22.6257 26.0574C22.4939 25.9245 22.3507 25.7606 22.1681 25.8177C22.082 25.8426 22.0083 25.909 21.9585 25.992C21.9077 26.074 21.8734 26.1684 21.8547 26.2649C21.863 26.1663 21.8869 26.0677 21.9305 25.9764C21.973 25.8851 22.0457 25.799 22.1473 25.7564C22.1992 25.7388 22.2511 25.7232 22.3092 25.7315C22.3704 25.7347 22.4171 25.7606 22.4669 25.7824C22.5593 25.8332 22.6413 25.8965 22.718 25.964C22.8716 26.0978 23.0075 26.2462 23.1404 26.3977C23.2721 26.5502 23.3956 26.7059 23.517 26.8688C23.5596 26.9269 23.5481 27.0089 23.49 27.0514C23.4319 27.094 23.35 27.0825 23.3074 27.0244C23.3043 27.0203 23.3022 27.0161 23.2991 27.013L23.297 27.0109Z" fill="#1D1D1B"/>
<path d="M38.2185 31.0027C38.1947 31.0027 38.1749 30.9996 38.1594 30.9934C38.0919 30.9685 38.0577 30.8927 38.0836 30.8253C38.1054 30.7661 38.1656 30.7329 38.2258 30.7423C38.2528 30.7402 38.4406 30.7142 39.0735 30.3687C39.7687 29.9879 40.4567 26.6332 40.2087 26.1009C39.9472 25.5406 38.9687 25.9194 38.9584 25.9235C38.8919 25.9505 38.8162 25.9173 38.7892 25.8498C38.7622 25.7834 38.7954 25.7077 38.8619 25.6807C38.9117 25.661 40.079 25.2075 40.4442 25.9899C40.7099 26.5596 40.0925 30.1072 39.198 30.596C38.7052 30.8668 38.3762 31.0027 38.2185 31.0027ZM38.2507 30.7495C38.2507 30.7495 38.2507 30.7506 38.2507 30.7495C38.2507 30.7506 38.2507 30.7495 38.2507 30.7495ZM38.2496 30.7495C38.2496 30.7495 38.2507 30.7495 38.2496 30.7495C38.2507 30.7495 38.2496 30.7495 38.2496 30.7495Z" fill="#1D1D1B"/>
<path d="M38.5576 27.2602C38.68 27.1014 38.8045 26.952 38.9363 26.8046C39.0681 26.6583 39.205 26.5162 39.3586 26.3875C39.4344 26.3232 39.5163 26.263 39.6087 26.2153C39.6574 26.1945 39.7041 26.1707 39.7633 26.1675C39.8193 26.1603 39.8712 26.1738 39.921 26.1904C40.0217 26.2288 40.0953 26.3118 40.1389 26.4C40.1835 26.4892 40.2084 26.5857 40.2167 26.6822C40.1981 26.5867 40.1617 26.4954 40.1109 26.4166C40.06 26.3377 39.9864 26.2744 39.9003 26.2526C39.7207 26.2007 39.5786 26.3543 39.4468 26.483C39.3161 26.6199 39.1999 26.7714 39.0878 26.9271C38.9768 27.0827 38.8709 27.2446 38.7723 27.4054L38.7713 27.4075C38.734 27.4687 38.6541 27.4884 38.5918 27.4511C38.5306 27.4137 38.5109 27.3338 38.5482 27.2716C38.5524 27.2685 38.5544 27.2643 38.5576 27.2602Z" fill="#1D1D1B"/>
<path d="M27.4935 14.854C27.4935 14.854 29.5802 13.9284 31.7177 14.0581C33.8553 14.1878 37.6177 15.4496 38.5049 19.4787L38.7477 19.6655C38.7477 19.6655 38.8836 18.9879 38.3814 18.0146C37.8781 17.0413 36.8841 14.552 33.7266 14.0446C30.5691 13.5383 27.8816 14.1256 26.8326 14.9526C25.7835 15.7785 25.8821 15.8086 25.8821 15.8086L27.4935 14.854Z" fill="#1D1D1B"/>
<path d="M38.7655 23.1362L38.614 27.5223C38.614 27.5223 38.6856 27.238 38.7655 26.9402C38.8454 26.6424 38.9046 26.3986 38.9751 26.1817C39.0758 25.8714 39.3611 25.6266 39.3611 25.6266C39.3611 25.6266 38.9212 25.446 38.9575 25.1192C39.0208 24.5422 38.9699 22.717 38.9699 22.717L38.7655 23.1362Z" fill="#1D1D1B"/>
<path d="M34.6158 26.9525C34.6158 26.9525 35.035 27.27 35.0993 27.3883C35.1647 27.5076 35.2612 27.4205 35.034 27.0428C34.8067 26.6651 34.7797 26.4046 34.6148 26.167C34.4498 25.9294 34.374 25.918 34.374 25.918L34.6158 26.9525Z" fill="#1D1D1B"/>
<path d="M31.2932 30.0829C31.2216 30.0829 31.149 30.0829 31.0753 30.0819C27.2516 30.0311 26.1414 28.5659 26.0957 28.5037L26.3063 28.3501C26.3167 28.3646 27.4031 29.7727 31.0794 29.8215C34.7817 29.8733 36.5944 28.595 36.6121 28.5815L36.7656 28.7921C36.692 28.8461 34.9467 30.0829 31.2932 30.0829Z" fill="#1D1D1B"/>
<path d="M31.3629 33.2822C26.5058 33.2822 26.0762 28.4863 26.072 28.4375L26.3314 28.4167C26.346 28.6046 26.7486 33.0207 31.3619 33.0207C36.191 33.0207 36.5459 28.8546 36.5583 28.6772L36.8177 28.6959C36.8156 28.7415 36.439 33.2822 31.3629 33.2822Z" fill="#1D1D1B"/>
<path d="M36.1099 28.316C36.2676 28.2901 36.4191 28.3233 36.5581 28.3825C36.6972 28.4437 36.8238 28.5371 36.9254 28.6574C37.0292 28.7757 37.0977 28.9303 37.1226 29.087C37.1516 29.2437 37.1153 29.4087 37.0344 29.5405C36.9514 29.4004 36.9037 29.2862 36.8321 29.1866C36.7646 29.087 36.7023 28.9957 36.6256 28.9075C36.5509 28.8193 36.471 28.7301 36.3848 28.6346C36.2987 28.5391 36.2074 28.4406 36.1099 28.316Z" fill="#1D1D1B"/>
<path d="M25.9319 29.2157C25.8385 29.0798 25.8178 28.9096 25.8416 28.7488C25.8665 28.5869 25.9402 28.4302 26.0491 28.3036C26.1602 28.1812 26.2992 28.0868 26.4497 28.0349C26.5233 28.0069 26.6032 27.9965 26.679 27.9861C26.7589 27.9851 26.8367 27.9861 26.9156 28.0048C26.8616 28.0702 26.8045 28.1158 26.7527 28.1635C26.7028 28.2165 26.6489 28.2559 26.6022 28.3016C26.5057 28.3887 26.4237 28.4748 26.3438 28.561C26.2681 28.6492 26.1986 28.7415 26.1322 28.8473C26.0637 28.9542 26.0014 29.0704 25.9319 29.2157Z" fill="#1D1D1B"/>
<path d="M26.3283 28.3813L27.3307 30.3352L27.1512 30.3539L27.2892 29.9243L27.3711 29.669L27.4676 29.9129L27.7571 30.6455L27.6814 30.6185L27.9761 30.5407L27.7302 30.7191L27.6855 30.7513L27.6554 30.6922L27.2933 29.9918L27.4718 29.9814L27.34 30.413L27.2767 30.6185L27.1595 30.4327L25.989 28.5754L26.3283 28.3813Z" fill="#1D1D1B"/>
<path d="M36.742 29.0278L35.3827 30.7524L35.2467 30.9246L35.2063 30.714L35.1201 30.2699L35.2965 30.3L34.8628 30.9578L34.8254 31.0139L34.785 30.9775L34.5598 30.7731L34.8441 30.8821L34.7663 30.9018L35.1305 30.2024L35.253 29.97L35.3069 30.2325L35.3993 30.6746L35.2229 30.6362L36.4244 28.7996L36.742 29.0278Z" fill="#1D1D1B"/>
<path d="M29.6103 22.39C29.6134 22.443 29.603 22.498 29.576 22.5509C29.549 22.6038 29.492 22.6515 29.4245 22.6681C29.3571 22.6868 29.2917 22.6795 29.2253 22.6598C29.1641 22.6391 29.1122 22.6111 29.0655 22.5872C28.8839 22.4834 28.7293 22.416 28.5529 22.3817C28.2063 22.3081 27.8307 22.3527 27.4364 22.39C27.0452 22.4284 26.6655 22.4948 26.2411 22.5312C26.1342 22.5384 26.0242 22.5415 25.9101 22.5312C25.797 22.5218 25.6787 22.4948 25.577 22.4554C25.4732 22.4139 25.3715 22.362 25.2854 22.2904C25.1993 22.2209 25.1235 22.1327 25.0924 22.03C25.2543 22.1618 25.4473 22.1981 25.632 22.2064C25.8187 22.2157 25.9858 22.1784 26.1767 22.1275C26.5513 22.0227 26.9653 21.9127 27.3825 21.8733C27.7892 21.837 28.2468 21.8142 28.6795 21.9947C28.8932 22.0798 29.0873 22.2344 29.2201 22.3859C29.2543 22.4232 29.2844 22.4554 29.3135 22.4803C29.3384 22.5021 29.3757 22.5197 29.409 22.527C29.4743 22.5467 29.5615 22.4834 29.6103 22.39Z" fill="#1D1D1B"/>
<path d="M33.5865 22.5884C33.627 22.6724 33.6872 22.7409 33.7526 22.7689C33.8179 22.797 33.8802 22.7918 33.9476 22.7689C34.1002 22.7202 34.2755 22.6548 34.4519 22.606C34.8068 22.5043 35.1918 22.4535 35.5798 22.4857C35.7728 22.5054 35.9669 22.5427 36.1526 22.605C36.3228 22.6631 36.4846 22.7222 36.6507 22.7824L37.6634 23.1508C37.2971 23.24 36.9204 23.2255 36.5562 23.1809C36.3747 23.1591 36.191 23.1197 36.0167 23.0802C35.8579 23.045 35.6971 23.0211 35.5342 23.0045C35.2073 22.9775 34.8722 22.9848 34.5214 23.0086C34.344 23.0169 34.1707 23.0346 33.9663 23.0232C33.8563 23.0149 33.7287 22.9702 33.6592 22.8769C33.5876 22.7866 33.571 22.6807 33.5865 22.5884Z" fill="#1D1D1B"/>
<path d="M34.1083 22.7583C34.2598 22.8579 34.4404 22.9471 34.6199 23.0156C34.8004 23.0852 34.9893 23.1381 35.1823 23.1671C35.3763 23.1962 35.5766 23.2117 35.7758 23.2232C35.975 23.2346 36.1753 23.2398 36.3756 23.2377C36.1763 23.2615 35.9761 23.2782 35.7758 23.2885C35.5745 23.2989 35.3742 23.3051 35.1698 23.2968C34.9644 23.2885 34.7589 23.2553 34.5597 23.2014C34.3584 23.1464 34.1675 23.08 33.9724 22.9804L34.1083 22.7583Z" fill="#1D1D1B"/>
<path d="M29.1348 22.5448C28.9532 22.6257 28.7841 22.6693 28.6046 22.7025C28.4272 22.7347 28.2487 22.7503 28.0702 22.7503C27.8917 22.7503 27.7154 22.7347 27.5431 22.7098C27.3698 22.6849 27.1965 22.6558 27.0305 22.5988C27.2007 22.634 27.375 22.6413 27.5473 22.6444C27.7205 22.6465 27.8928 22.6403 28.0619 22.6195C28.2311 22.5988 28.3971 22.5624 28.5579 22.5126C28.7156 22.4639 28.8785 22.3964 29.0062 22.3186L29.1348 22.5448Z" fill="#1D1D1B"/>
<path d="M29.1217 22.0797C28.9028 21.949 28.6932 21.8172 28.4794 21.6978C28.2657 21.5796 28.0509 21.4675 27.8299 21.3928C27.7749 21.3762 27.7199 21.3544 27.6639 21.344L27.5808 21.3233C27.5528 21.3191 27.5248 21.317 27.4978 21.3118C27.3847 21.2932 27.2592 21.2932 27.1399 21.2869C27.0195 21.2849 26.8981 21.2859 26.7777 21.2984C26.6574 21.3098 26.536 21.3284 26.4187 21.3772C26.5048 21.2786 26.6283 21.2216 26.7487 21.1738C26.8711 21.1292 26.9998 21.1002 27.1284 21.0836C27.2592 21.0649 27.3837 21.0597 27.5186 21.0649C27.6576 21.068 27.7884 21.1054 27.916 21.1458C28.1692 21.2319 28.3902 21.372 28.5936 21.5297C28.7938 21.6875 28.9754 21.8701 29.1217 22.0797Z" fill="#1D1D1B"/>
<path d="M33.7598 22.361C33.849 22.2531 33.9424 22.1421 34.0555 22.0497C34.1686 21.9584 34.2941 21.8796 34.4301 21.8194C34.7019 21.7021 35.007 21.6554 35.3017 21.6803C35.5984 21.7115 35.8682 21.7758 36.1422 21.8702C36.2781 21.9179 36.4099 21.9761 36.5365 22.0456C36.6599 22.1192 36.7855 22.1981 36.8737 22.3133C36.6236 22.1815 36.3538 22.1255 36.0872 22.0663C35.9523 22.0404 35.8184 22.0134 35.6825 21.9937C35.5466 21.9709 35.4106 21.9501 35.2809 21.9397C35.0174 21.9128 34.7559 21.9428 34.4996 22.0093C34.373 22.0476 34.2475 22.0943 34.125 22.1556C34.0005 22.2137 33.8874 22.2946 33.7598 22.361Z" fill="#1D1D1B"/>
<path d="M28.9264 22.8105C28.8766 22.9403 28.7822 23.0502 28.6774 23.1436C28.5684 23.2329 28.445 23.3065 28.3132 23.3574C28.1814 23.4093 28.0424 23.4445 27.9023 23.4601C27.7622 23.4798 27.62 23.4788 27.4852 23.4819C27.2123 23.485 26.9394 23.4975 26.6665 23.5089C26.5295 23.5151 26.3936 23.5224 26.2566 23.5327C26.1196 23.539 25.9827 23.5514 25.8457 23.5608C25.9785 23.5224 26.1144 23.4975 26.2493 23.4694C26.3853 23.4466 26.5212 23.4269 26.6582 23.4093C26.9321 23.374 27.2081 23.3574 27.4831 23.3522C27.7601 23.3532 28.0226 23.3418 28.28 23.263C28.4076 23.2256 28.529 23.1675 28.64 23.0928C28.7511 23.0201 28.8507 22.9257 28.9264 22.8105Z" fill="#1D1D1B"/>
<path d="M27.0305 23.6101C27.1519 23.5571 27.2847 23.5343 27.4144 23.5229C27.5452 23.5104 27.679 23.5167 27.8067 23.525C28.0567 23.5436 28.3058 23.5353 28.5641 23.4907C28.4541 23.5654 28.3255 23.6069 28.1947 23.6329C28.064 23.6599 27.9301 23.664 27.7973 23.6557C27.541 23.6329 27.293 23.6111 27.0305 23.6101Z" fill="#1D1D1B"/>
<path d="M34.5918 23.8242C34.7796 23.9311 34.9861 23.9882 35.1915 24.0234C35.397 24.0577 35.6076 24.0525 35.8224 24.0515C36.0362 24.0525 36.251 24.0483 36.4678 24.0608C36.6837 24.0722 36.9036 24.1013 37.107 24.177C36.8922 24.1511 36.6795 24.1573 36.4668 24.1625C36.253 24.1708 36.0393 24.1801 35.8235 24.1812C35.7156 24.1801 35.6076 24.1791 35.4987 24.1729C35.3887 24.1646 35.2787 24.15 35.1708 24.122C34.957 24.0691 34.7506 23.9726 34.5918 23.8242Z" fill="#1D1D1B"/>
<path d="M35.2083 23.4644C35.3919 23.4893 35.5745 23.5059 35.7561 23.5225C35.9377 23.536 36.1193 23.5485 36.2998 23.5454C36.4804 23.5454 36.6609 23.5339 36.8415 23.5121C37.021 23.4883 37.2015 23.4613 37.381 23.4136C37.2202 23.509 37.0417 23.5713 36.8591 23.6128C36.6765 23.6553 36.4887 23.674 36.3009 23.6761C35.9253 23.674 35.5517 23.6097 35.2083 23.4644Z" fill="#1D1D1B"/>
<path d="M23.9863 30.4453C23.9863 30.4453 25.0903 34.6581 28.3288 36.2498C29.0893 36.6244 32.8549 36.7147 33.5864 36.4179C37.2877 34.9165 38.0316 31.1167 38.0316 31.1167C38.0316 31.1167 36.8529 35.7673 36.388 36.4158C35.9232 37.0644 30.3947 37.7492 30.1955 37.7274C29.9962 37.7056 27.1542 36.6462 27.1542 36.6462C27.1542 36.6462 24.6815 35.1613 24.5445 35.0752C24.4076 34.9891 23.3398 31.6915 23.3398 31.6915L23.9863 30.4453Z" fill="#1D1D1B"/>
<path d="M38.7215 19.2202C38.7215 19.2202 39.5796 18.9597 40.1638 19.4215C40.747 19.8832 40.5166 21.5559 40.3433 22.1681C40.17 22.7803 39.9687 22.939 39.81 23.8252C39.6512 24.7113 39.2299 25.2612 39.2943 25.4439C39.3586 25.6265 39.6294 25.6835 39.6294 25.6835L38.8045 25.3297C38.8045 25.3297 39.232 24.9717 39.4053 24.3512C39.5786 23.7318 39.5641 23.1725 39.7519 22.8104C39.9397 22.4482 40.3215 21.338 40.2167 20.6822C40.1119 20.0264 40.1991 19.6726 39.7519 19.518C39.3046 19.3634 38.6416 19.4931 38.6416 19.4931L38.7215 19.2202Z" fill="#1D1D1B"/>
<path d="M39.3741 19.2201C39.3741 19.2201 42.348 16.2878 41.0208 13.977C39.6937 11.6662 37.799 9.73409 35.8493 9.58986C34.6166 9.49855 33.6371 9.25782 33.083 9.09284C32.8402 9.0202 32.616 8.90295 32.4075 8.75976C32.0816 8.53563 31.236 8.25858 29.3475 9.12916C26.7202 10.3401 23.5669 14.9814 20.925 14.4055C20.925 14.4055 22.1723 16.9716 25.0517 16.957L25.2177 16.3728C25.2177 16.3728 23.4486 16.8699 21.805 14.9098C21.805 14.9098 26.4183 12.8771 28.645 10.282C30.0676 8.62487 32.1481 9.33046 32.1481 9.33046C32.1481 9.33046 33.9089 9.9935 35.9364 10.311C37.965 10.6285 40.53 13.6553 40.6462 14.4055C40.7625 15.1557 39.9344 17.7467 39.2901 18.4056C38.6457 19.0655 38.5399 19.1475 38.5399 19.1475L38.5565 19.3602L39.3741 19.2201Z" fill="#1D1D1B"/>
<path d="M25.218 16.3718C25.218 16.3718 23.7435 16.2545 23.3585 15.9847C23.3585 15.9847 25.4732 16.0522 26.0657 15.7004L26.2172 15.4566L24.5435 15.6589L26.9653 14.9097H26.158L28.2769 14.448L26.5555 15.4099L25.2688 16.6239L25.218 16.3718Z" fill="#1D1D1B"/>
<path d="M24.5796 16.8904L24.1904 17.5825C24.1904 17.5825 23.9362 18.5714 23.9476 18.5558C23.958 18.5392 24.3482 17.54 24.3482 17.54L24.7207 16.8915L24.8774 16.8697L24.4768 17.6054C24.4768 17.6054 24.3897 18.0329 24.4115 17.9945C24.4332 17.9561 25.0496 16.8697 25.0496 16.8697V16.686H24.8493L24.5796 16.8904Z" fill="#1D1D1B"/>
<path d="M23.2278 23.5129L23.3191 25.5623L23.6055 24.6689L23.2278 23.5129Z" fill="#1D1D1B"/>
<path d="M38.952 22.8117C38.952 22.8117 39.3442 22.2389 39.3733 22.0293C39.3733 22.0293 39.2747 22.5824 39.0464 22.931L39.2944 22.7204C39.2944 22.7204 39.1097 23.2329 39.0464 23.4125C38.9841 23.593 38.9271 24.2633 38.9271 24.2633L39.1502 23.9998L38.9271 25.2574L38.7642 24.8537L38.8326 23.9385L38.952 22.8117Z" fill="#1D1D1B"/>
<path d="M39.1607 19.3592L39.695 19.6653L38.8836 19.5252L38.6543 19.3426L39.0476 19.1589L39.1607 19.3592Z" fill="#1D1D1B"/>
<path d="M29.3477 14.0226C29.3477 14.0226 34.0512 13.042 36.3755 14.5767C38.6998 16.1113 38.7641 16.9549 38.7641 16.9549C38.7641 16.9549 37.9423 14.2737 35.3151 13.4955C32.6878 12.7172 32.4284 12.7598 32.4284 12.7598C32.4284 12.7598 37.0801 12.8169 38.8503 15.2034C38.8503 15.2034 38.4342 13.8192 37.0417 13.0628C37.0417 13.0628 39.2394 14.0579 39.6928 15.0955C39.6928 15.0955 39.4116 14.1658 38.8492 13.3979C38.2868 12.6301 37.2617 12.0251 37.2617 12.0251C37.2617 12.0251 40.9245 13.4519 40.7087 15.2906C40.4928 17.1282 39.588 18.8154 39.588 18.8154L38.7195 19.219L38.2547 18.3101C38.2547 18.3101 37.3011 15.7658 35.9345 15.0955C34.568 14.4252 33.2056 14.1658 33.2056 14.1658L31.7166 14.0579L29.3477 14.0226Z" fill="#1D1D1B"/>
<path d="M25.3798 36.2725C25.3798 36.2725 26.5306 38.0603 29.6092 38.3851C32.6879 38.7099 34.8866 37.169 34.8866 37.169C34.8866 37.169 34.3439 36.258 34.3813 36.4894C34.4176 36.7207 30.4985 37.0881 30.4985 37.0881L26.0304 35.4341H25.1733L24.9679 35.9415L25.3798 36.2725Z" fill="#1D1D1B"/>
<path d="M52.1841 50.5628C52.0827 50.4654 52.0307 50.2795 52.0307 50.0041V47.8404C52.0307 47.4089 51.9086 47.084 51.6668 46.8644C51.4238 46.6448 51.1107 46.5356 50.726 46.5356H50.0671V46.6552V46.7748V46.8943V47.0139V47.1334V47.253V47.3725V47.4921V47.5987H50.2556C50.4674 47.5987 50.6233 47.6597 50.726 47.7806C50.8274 47.9027 50.8793 48.1198 50.8793 48.4329V50.1964C50.8793 50.7448 51.1184 51.0904 51.5967 51.2308V51.2542C51.1184 51.3958 50.8793 51.7402 50.8793 52.2886V54.052C50.8793 54.3652 50.8287 54.5835 50.726 54.7044C50.6233 54.8266 50.4674 54.8863 50.2556 54.8863H50.0671V54.989V55.1085V55.2281V55.3477V55.4672V55.5868V55.7063V55.8259V55.9454V55.9493H50.726C51.1094 55.9493 51.4238 55.8389 51.6668 55.6206C51.9099 55.4009 52.0307 55.0761 52.0307 54.6446V52.4809C52.0307 52.2067 52.0814 52.0209 52.1841 51.9221C52.2854 51.8247 52.4816 51.7753 52.7714 51.7753V51.6609V51.5414V51.4218V51.3023V51.1827V51.0632V50.9436V50.824V50.7136C52.4829 50.7097 52.2867 50.6616 52.1841 50.5628Z" fill="#082444"/>
<path d="M13.4234 46.5387C13.1973 46.5387 12.9984 46.5816 12.8217 46.6582C12.7463 46.6907 12.6748 46.731 12.6073 46.7778C12.5657 46.8077 12.5215 46.8337 12.4838 46.8688C12.4747 46.8766 12.4682 46.8882 12.4604 46.896C12.4227 46.9324 12.389 46.9727 12.3578 47.0156C12.3305 47.0533 12.3071 47.0936 12.2837 47.1352C12.2629 47.1741 12.2408 47.2118 12.2226 47.2547C12.2083 47.2924 12.1979 47.334 12.1862 47.3743C12.1745 47.4133 12.1641 47.4522 12.155 47.4938C12.1472 47.5328 12.142 47.5718 12.1368 47.6134C12.1316 47.6511 12.1303 47.6926 12.1277 47.7329C12.1252 47.7719 12.1187 47.807 12.1187 47.8473V47.8512V47.9707V48.0903V48.2099V48.3294V48.449V48.5685V48.6881V48.8076V48.9272V49.0467V49.1663V49.2859V49.4054V49.525V49.6445V49.7641V49.8836V50.0032V50.0201C12.1187 50.0565 12.1148 50.089 12.1135 50.1227C12.1109 50.1643 12.1083 50.2046 12.1031 50.2423C12.0979 50.2839 12.0914 50.3255 12.081 50.3619C12.0693 50.4073 12.0537 50.4463 12.0355 50.4814C12.016 50.5204 11.9926 50.5542 11.9653 50.5802C11.9575 50.588 11.9458 50.5932 11.9367 50.5997C11.8562 50.6633 11.7301 50.7036 11.5573 50.7192C11.5014 50.7244 11.4429 50.727 11.3779 50.727V50.8375V50.957V51.0766V51.1961V51.3157V51.4353V51.5548V51.6744V51.7887C11.4143 51.7887 11.4442 51.7913 11.478 51.7939C11.6872 51.803 11.838 51.8433 11.9315 51.9135C11.9419 51.9213 11.9562 51.9278 11.9653 51.9369C11.9926 51.9629 12.0147 51.9953 12.0342 52.033C12.0524 52.0681 12.068 52.1071 12.0797 52.1526C12.0888 52.1877 12.0953 52.2293 12.1018 52.2721C12.107 52.3085 12.1096 52.3488 12.1122 52.3917C12.1148 52.4268 12.1174 52.4593 12.1174 52.497V52.5099V52.6295V52.7491V52.8686V52.9882V53.1077V53.2273V53.3468V53.4664V53.5859V53.7055V53.8251V53.9446V54.0369V54.1564V54.276V54.3955V54.5151V54.6425C12.1174 54.6814 12.1239 54.7165 12.1252 54.7542C12.1278 54.7945 12.129 54.8348 12.1342 54.8738C12.1394 54.9141 12.1446 54.9543 12.1511 54.9933C12.1589 55.0349 12.1706 55.0739 12.1823 55.1129C12.194 55.1532 12.2031 55.1947 12.2187 55.2324C12.2356 55.2753 12.2577 55.313 12.2798 55.352C12.3279 55.4404 12.3851 55.5209 12.4552 55.5898C12.4656 55.5989 12.4721 55.6119 12.4825 55.621C12.5189 55.6548 12.5618 55.6808 12.6021 55.7081C12.8269 55.8653 13.0985 55.9498 13.4234 55.9498H14.0822V55.9459V55.8263V55.7068V55.5872V55.4676V55.3481V55.2285V55.109V54.9894V54.8868H13.8938C13.8327 54.8868 13.7768 54.8803 13.7249 54.8699C13.6235 54.8504 13.5403 54.8101 13.474 54.7503C13.4572 54.7347 13.4377 54.7217 13.4234 54.7035C13.3831 54.6554 13.3532 54.5892 13.3298 54.5125C13.3181 54.4761 13.3077 54.4371 13.2999 54.3929C13.2934 54.3553 13.2856 54.3176 13.2804 54.2734C13.2765 54.237 13.2765 54.1941 13.2739 54.1538C13.2726 54.1187 13.2687 54.0876 13.2687 54.0499V54.0369V53.9173V53.7978V53.6782V53.5587V53.4391V53.3195V53.2V53.0804V52.9609V52.8413V52.7218V52.6022V52.4827V52.3631V52.2812C13.2687 52.2682 13.2674 52.2578 13.2661 52.2448C13.2648 52.2046 13.2635 52.1643 13.2596 52.1253C13.2557 52.0837 13.2492 52.0447 13.2427 52.0057C13.2349 51.9655 13.2271 51.9239 13.2167 51.8862C13.205 51.8446 13.1908 51.8056 13.1752 51.7666C13.157 51.725 13.1349 51.6848 13.1115 51.6471C13.0855 51.6042 13.0556 51.5652 13.0218 51.5275C12.9828 51.4846 12.9399 51.4443 12.8906 51.408C12.8269 51.3612 12.7541 51.3222 12.6748 51.2884C12.6346 51.2715 12.5956 51.2559 12.5514 51.2429V51.2195C12.5995 51.2052 12.6424 51.1883 12.6852 51.1701C12.7632 51.1377 12.8334 51.0974 12.8958 51.0506C12.9438 51.0155 12.9867 50.9752 13.0244 50.931C13.0569 50.8947 13.0868 50.8544 13.1128 50.8115C13.1362 50.7738 13.157 50.7348 13.1752 50.6919C13.1908 50.6542 13.205 50.614 13.2167 50.5724C13.2271 50.5347 13.2349 50.4944 13.2414 50.4528C13.2479 50.4138 13.2544 50.3748 13.2583 50.3333C13.2622 50.2943 13.2648 50.2553 13.2648 50.2137C13.2648 50.202 13.2661 50.1929 13.2661 50.1812V50.0955V49.9759V49.8563V49.7368V49.6172V49.4977V49.3781V49.2586V49.139V49.0195V48.8999V48.7803V48.6608V48.5412V48.4217V48.41C13.2661 48.371 13.2687 48.3385 13.2713 48.3021C13.2726 48.2618 13.2739 48.2203 13.2778 48.1826C13.2817 48.1397 13.2895 48.102 13.2973 48.063C13.3051 48.0201 13.3155 47.9811 13.3272 47.9435C13.3415 47.8993 13.3584 47.859 13.3779 47.8239C13.3909 47.8005 13.4039 47.7745 13.4195 47.755C13.4351 47.7355 13.4559 47.7212 13.474 47.7043C13.5429 47.6446 13.6287 47.6043 13.7353 47.5848C13.7833 47.577 13.834 47.5718 13.8899 47.5718H14.0783V47.4652V47.3457V47.2261V47.1066V46.987V46.8675V46.7479V46.6283V46.5088H13.4234V46.5387Z" fill="#082444"/>
<path d="M34.0064 52.4896V52.8379C34.0064 53.6449 33.6595 54.049 32.9655 54.049C32.2716 54.049 31.9246 53.6462 31.9246 52.8379V51.8827V50.0101V49.6957C31.9246 48.8757 32.2716 48.465 32.9655 48.465C33.6595 48.465 34.0064 48.8757 34.0064 49.6957V49.8269H35.9739C35.9739 48.7938 35.7114 47.9933 35.189 47.4254C34.6653 46.8575 33.9051 46.5742 32.9083 46.5742C31.9116 46.5742 31.1514 46.8575 30.6277 47.4254C30.104 47.9933 29.8428 48.7938 29.8428 49.8282V49.8919V50.0088V50.0101V50.1284V50.2467V50.3649V50.4832V50.6014V50.7197V50.8379V50.9562V51.0744V51.1927V51.311V51.4292V51.5475V51.6657V51.784V51.8775V51.9022V52.0205V52.1387V52.257V52.3753V52.4935V52.6118V52.6793C29.8428 53.7138 30.104 54.5156 30.6277 55.0821C31.1514 55.65 31.9116 55.9333 32.9083 55.9333C33.9051 55.9333 34.6653 55.65 35.189 55.0821C35.7127 54.5143 35.9739 53.7138 35.9739 52.6793V52.6118V52.4935V52.4831H34.0064V52.4896Z" fill="#1353A0"/>
<path d="M41.407 46.5361V50.4412C40.8222 50.3931 40.2179 50.4659 39.6332 50.6907C39.2225 50.8479 38.8547 51.0662 38.5312 51.3287V46.5361H36.4675V46.6557V46.7752V46.8948V47.0143V47.1339V47.2535V47.373V47.4926V47.6121V47.7317V47.8512V47.9708V48.0903V48.2099V48.3295V48.449V48.5686V48.6881V48.8077V48.9272V49.0468V49.1663V49.2859V49.4054V49.525V49.6446V49.7641V49.8759V49.9954V50.115V50.2345V50.3541V50.4737V50.5932V50.7128V50.8323V50.9519V51.0714V51.191V51.3105V51.4301V51.5496V51.6692V51.7888V51.9083V52.0279V52.1474V52.267V52.3865V52.5061V52.6256V52.7452V52.8648V52.9843V53.1039V53.2234V53.343V53.4625V53.5821V53.7016V53.8212V53.9408V54.0603V54.1799V54.2994V54.419V54.5385V54.6581V54.7776V54.8972V55.0168V55.1363V55.2559V55.3754V55.495V55.6145V55.7341V55.8536V55.9732V55.9771H38.5299V53.7705C38.5623 53.7276 38.5935 53.6835 38.6273 53.6419C38.9275 53.4132 39.2615 53.2195 39.6319 53.0766C40.2166 52.8518 40.8209 52.7764 41.4057 52.8232V55.9771H43.468V55.9732V55.8536V55.7341V55.6145V55.495V55.3754V55.2559V55.1363V55.0168V54.8972V54.7776V54.6581V54.5385V54.419V54.2994V54.1799V54.0603V53.9408V53.8212V53.7016V53.5821V53.4625V53.343V53.2234V53.1039V52.9843V52.8648V52.7452V52.6256V52.5503V52.5061V52.3865V52.267V52.1474V52.0279V51.9083V51.7888V51.6692V51.5496V51.4301V51.3105V51.2001V51.191V51.0714V50.9519V50.8323V50.7128V50.5932V50.4737V50.3541V50.2345V50.115V49.9954V49.8759V49.7563V49.6368V49.5172V49.3977V49.2781V49.1585V49.039V48.9194V48.7999V48.6803V48.5608V48.4412V48.3217V48.2021V48.0825V47.963V47.8434V47.7239V47.6043V47.4848V47.3652V47.2457V47.1261V47.0065V46.887V46.7674V46.6479V46.5283H41.407V46.5361Z" fill="#1353A0"/>
<path d="M25.232 46.5356H23.0332L21.7818 52.3198L20.9267 49.2854L20.9319 49.2698H18.7279L17.8689 52.3198L16.6188 46.5356L14.4226 46.5551L16.4291 55.9415H18.9839L19.826 53.0566L20.6681 55.9415H23.2229L25.232 46.5356Z" fill="#1353A0"/>
<path d="M49.3093 47.3209C48.7856 46.753 48.0254 46.4697 47.0287 46.4697C46.032 46.4697 45.2717 46.753 44.748 47.3209C44.2243 47.8888 43.9631 48.6893 43.9631 49.7237V49.7432V49.8147V49.8861V49.9576V50.0291V50.0798V50.0993V50.1707V50.2422V50.3137V50.3852V50.4566V50.5255V50.597V50.6685V50.7399V50.8114V50.8829V50.9544V51.0258V51.0973V51.1688V51.2402V51.3117V51.3832V51.4547V51.5261V51.5976V51.6691V51.7406V51.812V51.8835V51.955V52.0265V52.0979V52.1421V52.1694V52.2409V52.3123V52.3838V52.4553V52.5268V52.5982V52.6697V52.7412V52.7646C43.9631 53.799 44.2243 54.6008 44.748 55.1674C45.2717 55.7353 46.032 56.0186 47.0287 56.0186C48.0254 56.0186 48.7856 55.7353 49.3093 55.1674C49.833 54.5995 50.0943 53.799 50.0943 52.7646V52.7412V52.6697V52.5982V52.5268V52.4553V52.3838V52.3123V52.2409V52.1694V52.0979V52.0265V51.955V51.8835V51.812V51.7406V51.6691V51.5976V51.5261V51.5015V51.4547V51.3832V51.3117V51.2402V51.1688V51.0973V51.0258V50.9544V50.8829V50.8114V50.7399V50.6685V50.597V50.5255V50.454V50.3826V50.3111V50.263V50.2409V50.1694V50.098V50.0499V50.0265V49.955V49.8836V49.8121V49.7406V49.7211C50.0943 48.6893 49.833 47.8888 49.3093 47.3209ZM48.1281 50.0993V50.1707V50.2422V50.3137V50.3852V50.4566V50.5255V50.597V50.6685V50.7399V50.8114V50.8829H48.1268V52.9075C48.1268 53.7145 47.7798 54.1187 47.0859 54.1187C46.3919 54.1187 46.045 53.7158 46.045 52.9075V52.875V52.8036V52.7321V52.6606V52.5891V52.5177V52.4462V52.3747V52.3032V52.2318V52.1603V52.133V52.0888V52.0174V51.9459V51.8744V51.8029V51.7315V51.66V51.5885V51.517V51.4456V51.3741V51.3026V51.2311V51.1597V51.0882V51.0167V50.9453V50.8738V50.8023V50.7308V50.6594V50.5879V50.5255V50.454V50.3826V50.3111V50.2396V50.1681V50.0967V50.0772V50.0265V49.955V49.8836V49.8121V49.7406V49.6691V49.5977V49.5886C46.045 48.7686 46.3919 48.3579 47.0859 48.3579C47.7798 48.3579 48.1268 48.7686 48.1268 49.5886V50.0486H48.1281V50.0993Z" fill="#1353A0"/>
<path d="M27.3165 46.5356H27.2866C27.2827 46.559 27.2775 46.5824 27.2723 46.6058C27.2671 46.6292 27.2632 46.6526 27.258 46.676C27.2528 46.6994 27.2463 46.7228 27.2399 46.7462C27.2334 46.7696 27.2269 46.7929 27.2191 46.8163C27.2113 46.8397 27.2048 46.8631 27.197 46.8865C27.1879 46.9099 27.1788 46.9333 27.1697 46.9567C27.1606 46.9801 27.1515 47.0035 27.1424 47.0269C27.132 47.0503 27.119 47.0736 27.1073 47.097C27.0956 47.1204 27.0852 47.1438 27.0722 47.1672C27.0592 47.1906 27.0449 47.214 27.0306 47.2374C27.0163 47.2608 27.002 47.2842 26.9877 47.3076C26.9722 47.3309 26.954 47.3543 26.9371 47.3777C26.9202 47.4011 26.9033 47.4258 26.8851 47.4479C26.8656 47.4726 26.8448 47.4947 26.824 47.5181C26.8032 47.5415 26.7824 47.5662 26.7603 47.5883C26.7369 47.6129 26.7109 47.635 26.6863 47.6584C26.6603 47.6831 26.633 47.7065 26.6057 47.7286C26.5771 47.752 26.5485 47.7767 26.5173 47.7988C26.4835 47.8235 26.4471 47.8469 26.4121 47.8689C26.3731 47.8936 26.3315 47.917 26.2899 47.9391C26.2418 47.9651 26.1937 47.9885 26.1431 48.0093C26.0807 48.0353 26.017 48.06 25.952 48.0795C25.8442 48.1133 25.7311 48.1366 25.6155 48.1496C25.5427 48.1587 25.4686 48.1639 25.3932 48.1639C25.3867 48.1639 25.2334 48.1639 25.2334 48.1639V48.2198V48.29V48.3602V48.4303V48.5005V48.5707V48.6409V48.711V48.7812V48.8514V48.9216V48.9917V49.0619V49.1321V49.2023V49.2724V49.3426V49.4128V49.4829V49.5531V49.6233V49.6467H27.2879V49.6935V49.7636V49.8338V49.904V49.9742V50.0443V50.1145V50.1847V50.2549V50.325V50.3952V50.4654V50.5356V50.6057V50.6759V50.7461V50.8162V50.8864V50.9566V51.0268V51.0969V51.1671V51.2373V51.3075V51.3776V51.4478V51.518V51.5882V51.6583V51.7285V51.7987V51.8689V51.939V52.0092V52.0794V52.1496V52.2197V52.2899V52.3601V52.4302V52.5004V52.5706V52.6408V52.7109V52.7811V52.8513V52.9215V52.9916V53.0618V53.132V53.2022V53.2723V53.3425V53.4127V53.4829V53.553V53.6232V53.6934V53.7636V53.8337V53.9039V53.9741V54.0442V54.1144V54.2548V54.3249V54.3951V54.4653V54.5355V54.6056V54.746V54.8863V54.9565V55.0969V55.2372V55.3074V55.3775V55.5179V55.7284V55.9428H29.3503V55.9389V55.8688V55.7986V55.7284V55.6582V55.5881V55.5179V55.4477V55.3775V55.3074V55.2372V55.167V55.0969V55.0267V54.9565V54.8863V54.8162V54.746V54.6758V54.6056V54.5355V54.4653V54.3951V54.3249V54.2548V54.1846V54.1144V54.0442V53.9741V53.9039V53.8337V53.7636V53.6934V53.6232V53.553V53.4829V53.4127V53.3425V53.2723V53.2022V53.132V53.0618V52.9916V52.9215V52.8513V52.7811V52.7109V52.6408V52.5706V52.5004V52.4302V52.3601V52.2899V52.2197V52.1496V52.0794V52.0092V51.939V51.8689V51.7987V51.7285V51.6583V51.5882V51.518V51.4478V51.3776V51.3075V51.2373V51.1671V51.0969V51.0268V50.9566V50.8864V50.8162V50.7461V50.6759V50.6057V50.5356V50.4654V50.3952V50.325V50.2549V50.1847V50.1145V50.0443V49.9742V49.904V49.8338V49.7636V49.6935V49.6233V49.5531V49.4829V49.4128V49.3426V49.2724V49.2023V49.1321V49.0619V48.9917V48.9216V48.8514V48.7812V48.711V48.6409V48.5707V48.5005V48.4303V48.3602V48.29V48.2198V48.1496V48.0795V48.0093V47.9391V47.8689V47.7988V47.7286V47.6584V47.5883V47.5181V47.4479V47.3777V47.3076V47.2374V47.1672V47.097V47.0269V46.9567V46.8865V46.8163V46.7462V46.676V46.6058V46.5356H27.3165V46.5356Z" fill="#1353A0"/>
</svg>
